<?xml version="1.0" encoding="UTF-8" standalone="no"?><svg xmlns="http://www.w3.org/2000/svg" xmlns:xlink="http://www.w3.org/1999/xlink" contentStyleType="text/css" height="233px" preserveAspectRatio="none" style="width:520px;height:233px;background:#FFFFFF;" version="1.1" viewBox="0 0 520 233" width="520px" zoomAndPan="magnify"><defs><filter height="1" id="b16oirl3n3h9gh0" width="1" x="0" y="0"><feFlood flood-color="#FFFFFF" result="flood"/><feComposite in="SourceGraphic" in2="flood" operator="over"/></filter></defs><g><!--MD5=[6802c5474c2b27d32714d54bda0bf5a7]
cluster Local Repository--><g id="cluster_Local Repository"><path d="M8.5,6 L129.5,6 A3.75,3.75 0 0 1 132,8.5 L139,28.4883 L173.5,28.4883 A2.5,2.5 0 0 1 176,30.9883 L176,223.5 A2.5,2.5 0 0 1 173.5,226 L8.5,226 A2.5,2.5 0 0 1 6,223.5 L6,8.5 A2.5,2.5 0 0 1 8.5,6 " fill="none" style="stroke:#000000;stroke-width:1.5;"/><line style="stroke:#000000;stroke-width:1.5;" x1="6" x2="139" y1="28.4883" y2="28.4883"/><text fill="#000000" font-family="sans-serif" font-size="14" font-weight="bold" lengthAdjust="spacing" textLength="120" x="10" y="21.5352">Local Repository</text></g><!--MD5=[f043e5603ea6a6f26c99e29e5c47b1e1]
cluster External Repository (shared_libs)--><g id="cluster_External Repository (shared_libs)"><path d="M261.5,6 L500.5,6 A3.75,3.75 0 0 1 503,8.5 L510,28.4883 L510.5,28.4883 A2.5,2.5 0 0 1 513,30.9883 L513,223.5 A2.5,2.5 0 0 1 510.5,226 L261.5,226 A2.5,2.5 0 0 1 259,223.5 L259,8.5 A2.5,2.5 0 0 1 261.5,6 " fill="none" style="stroke:#000000;stroke-width:1.5;"/><line style="stroke:#000000;stroke-width:1.5;" x1="259" x2="510" y1="28.4883" y2="28.4883"/><text fill="#000000" font-family="sans-serif" font-size="14" font-weight="bold" lengthAdjust="spacing" textLength="238" x="263" y="21.5352">External Repository (shared_libs)</text></g><!--MD5=[770389ab9df153645bc6ef28055eb2b5]
entity A--><g id="elem_A"><rect fill="#F1F1F1" height="46.4883" rx="2.5" ry="2.5" style="stroke:#181818;stroke-width:0.5;" width="137" x="22.5" y="41"/><rect fill="#F1F1F1" height="10" style="stroke:#181818;stroke-width:0.5;" width="15" x="139.5" y="46"/><rect fill="#F1F1F1" height="2" style="stroke:#181818;stroke-width:0.5;" width="4" x="137.5" y="48"/><rect fill="#F1F1F1" height="2" style="stroke:#181818;stroke-width:0.5;" width="4" x="137.5" y="52"/><text fill="#000000" font-family="sans-serif" font-size="14" lengthAdjust="spacing" textLength="89" x="41.5" y="74.5352">Executable A</text></g><!--MD5=[b2d39259b6aeabc16b394deeb0238426]
entity B--><g id="elem_B"><rect fill="#F1F1F1" height="46.4883" rx="2.5" ry="2.5" style="stroke:#181818;stroke-width:0.5;" width="107" x="37.5" y="164"/><rect fill="#F1F1F1" height="10" style="stroke:#181818;stroke-width:0.5;" width="15" x="124.5" y="169"/><rect fill="#F1F1F1" height="2" style="stroke:#181818;stroke-width:0.5;" width="4" x="122.5" y="171"/><rect fill="#F1F1F1" height="2" style="stroke:#181818;stroke-width:0.5;" width="4" x="122.5" y="175"/><text fill="#000000" font-family="sans-serif" font-size="14" lengthAdjust="spacing" textLength="59" x="56.5" y="197.5352">Library B</text></g><!--MD5=[16fab723be418f7eaf2ea4bd895a8e51]
entity C--><g id="elem_C"><rect fill="#F1F1F1" height="46.4883" rx="2.5" ry="2.5" style="stroke:#181818;stroke-width:0.5;" width="109" x="331.5" y="41"/><rect fill="#F1F1F1" height="10" style="stroke:#181818;stroke-width:0.5;" width="15" x="420.5" y="46"/><rect fill="#F1F1F1" height="2" style="stroke:#181818;stroke-width:0.5;" width="4" x="418.5" y="48"/><rect fill="#F1F1F1" height="2" style="stroke:#181818;stroke-width:0.5;" width="4" x="418.5" y="52"/><text fill="#000000" font-family="sans-serif" font-size="14" lengthAdjust="spacing" textLength="61" x="350.5" y="74.5352">Library C</text></g><!--MD5=[118f42602524ad482f02b27ef22fc383]
entity D--><g id="elem_D"><rect fill="#F1F1F1" height="46.4883" rx="2.5" ry="2.5" style="stroke:#181818;stroke-width:0.5;" width="109" x="331.5" y="164"/><rect fill="#F1F1F1" height="10" style="stroke:#181818;stroke-width:0.5;" width="15" x="420.5" y="169"/><rect fill="#F1F1F1" height="2" style="stroke:#181818;stroke-width:0.5;" width="4" x="418.5" y="171"/><rect fill="#F1F1F1" height="2" style="stroke:#181818;stroke-width:0.5;" width="4" x="418.5" y="175"/><text fill="#000000" font-family="sans-serif" font-size="14" lengthAdjust="spacing" textLength="61" x="350.5" y="197.5352">Library D</text></g><!--MD5=[5e2eec62a50b26b6b0db6c12e4ee289c]
link A to B--><g id="link_A_B"><path d="M91,87.19 C91,107.41 91,137.31 91,158.92 " fill="none" id="A-to-B" style="stroke:#181818;stroke-width:1.0;"/><polygon fill="#181818" points="91,163.95,95,154.95,91,158.95,87,154.95,91,163.95" style="stroke:#181818;stroke-width:1.0;"/><text fill="#000000" filter="url(#b16oirl3n3h9gh0)" font-family="sans-serif" font-size="13" lengthAdjust="spacing" textLength="48" x="96" y="130.5684">//B:libB</text></g><!--MD5=[e1650921a81fac0037ec207a42ac4e7e]
link A to C--><g id="link_A_C"><path d="M159.79,64 C210.22,64 278.01,64 326.2,64 " fill="none" id="A-to-C" style="stroke:#181818;stroke-width:1.0;"/><polygon fill="#181818" points="331.39,64,322.39,60,326.39,64,322.39,68,331.39,64" style="stroke:#181818;stroke-width:1.0;"/><text fill="#000000" filter="url(#b16oirl3n3h9gh0)" font-family="sans-serif" font-size="13" lengthAdjust="spacing" textLength="135" x="178" y="57.5684">@shared_libs//C:libC</text></g><!--MD5=[95ca888c4bb7ed1df160562281720a5c]
link C to D--><g id="link_C_D"><path d="M386,87.19 C386,107.41 386,137.31 386,158.92 " fill="none" id="C-to-D" style="stroke:#181818;stroke-width:1.0;"/><polygon fill="#181818" points="386,163.95,390,154.95,386,158.95,382,154.95,386,163.95" style="stroke:#181818;stroke-width:1.0;"/><text fill="#000000" filter="url(#b16oirl3n3h9gh0)" font-family="sans-serif" font-size="13" lengthAdjust="spacing" textLength="54" x="391" y="130.5684">//D:libD</text></g><!--MD5=[21df2d2f6fb9275a5dd7b37cc8a9b8b0]
@startuml
package "Local Repository" {
    [ Executable A ] as A
    [ Library B ] as B
}

package "External Repository (shared_libs)" {
    [ Library C ] as C
    [ Library D ] as D
}

A - -> B: <back:white> //B:libB
A -r-> C: <back:white>@shared_libs//C:libC
C - -> D: <back:white> //D:libD

@enduml

PlantUML version 1.2022.7(Mon Aug 22 10:01:30 PDT 2022)
(GPL source distribution)
Java Runtime: OpenJDK Runtime Environment
JVM: OpenJDK 64-Bit Server VM
Default Encoding: UTF-8
Language: en
Country: US
--></g></svg>