<?xml version="1.0" encoding="UTF-8" standalone="no"?><svg xmlns="http://www.w3.org/2000/svg" xmlns:xlink="http://www.w3.org/1999/xlink" contentStyleType="text/css" height="233px" preserveAspectRatio="none" style="width:670px;height:233px;background:#FFFFFF;" version="1.1" viewBox="0 0 670 233" width="670px" zoomAndPan="magnify"><defs><filter height="1" id="b47wuzmpaxe240" width="1" x="0" y="0"><feFlood flood-color="#FFFFFF" result="flood"/><feComposite in="SourceGraphic" in2="flood" operator="over"/></filter></defs><g><!--MD5=[6802c5474c2b27d32714d54bda0bf5a7]
cluster Local Repository--><g id="cluster_Local Repository"><path d="M8.5,6 L129.5,6 A3.75,3.75 0 0 1 132,8.5 L139,28.4883 L261.5,28.4883 A2.5,2.5 0 0 1 264,30.9883 L264,223.5 A2.5,2.5 0 0 1 261.5,226 L8.5,226 A2.5,2.5 0 0 1 6,223.5 L6,8.5 A2.5,2.5 0 0 1 8.5,6 " fill="none" style="stroke:#000000;stroke-width:1.5;"/><line style="stroke:#000000;stroke-width:1.5;" x1="6" x2="139" y1="28.4883" y2="28.4883"/><text fill="#000000" font-family="sans-serif" font-size="14" font-weight="bold" lengthAdjust="spacing" textLength="120" x="10" y="21.5352">Local Repository</text></g><!--MD5=[f043e5603ea6a6f26c99e29e5c47b1e1]
cluster External Repository (shared_libs)--><g id="cluster_External Repository (shared_libs)"><path d="M411.5,6 L650.5,6 A3.75,3.75 0 0 1 653,8.5 L660,28.4883 L660.5,28.4883 A2.5,2.5 0 0 1 663,30.9883 L663,223.5 A2.5,2.5 0 0 1 660.5,226 L411.5,226 A2.5,2.5 0 0 1 409,223.5 L409,8.5 A2.5,2.5 0 0 1 411.5,6 " fill="none" style="stroke:#000000;stroke-width:1.5;"/><line style="stroke:#000000;stroke-width:1.5;" x1="409" x2="660" y1="28.4883" y2="28.4883"/><text fill="#000000" font-family="sans-serif" font-size="14" font-weight="bold" lengthAdjust="spacing" textLength="238" x="413" y="21.5352">External Repository (shared_libs)</text></g><!--MD5=[770389ab9df153645bc6ef28055eb2b5]
entity A--><g id="elem_A"><rect fill="#F1F1F1" height="46.4883" rx="2.5" ry="2.5" style="stroke:#181818;stroke-width:0.5;" width="137" x="22.5" y="41"/><rect fill="#F1F1F1" height="10" style="stroke:#181818;stroke-width:0.5;" width="15" x="139.5" y="46"/><rect fill="#F1F1F1" height="2" style="stroke:#181818;stroke-width:0.5;" width="4" x="137.5" y="48"/><rect fill="#F1F1F1" height="2" style="stroke:#181818;stroke-width:0.5;" width="4" x="137.5" y="52"/><text fill="#000000" font-family="sans-serif" font-size="14" lengthAdjust="spacing" textLength="89" x="41.5" y="74.5352">Executable A</text></g><!--MD5=[b2d39259b6aeabc16b394deeb0238426]
entity B--><g id="elem_B"><path d="M31.5638,173.4992 C34.8228,166.8606 40.2864,167.4064 43.9149,173.1301 C46.1027,167.4139 51.4336,166.1224 55.1737,171.5638 C59.0524,163.8708 64.3236,165.2548 68.9476,170.7877 C71.6525,165.8731 76.731,166.0062 79.2267,171.0047 C83.2063,164.9893 87.8008,165.0545 91.6312,171.1573 C96.4929,164.6235 102.4849,165.1996 105.4457,172.9904 C113.9751,176.5997 114.7192,182.6298 107.4947,188.3418 C113.9348,194.7471 112.692,200.6005 104.0495,203.6002 C100.6569,209.2111 97.0191,210.7923 91.8853,205.5521 C90.5014,213.4059 85.4821,214.6829 79.7804,209.5888 C78.0578,215.1402 72.7443,216.6516 68.855,211.8825 C63.294,217.6911 58.2673,215.9766 55.0947,209.2587 C50.5149,214.1104 46.9682,212.1256 44.6095,206.9387 C39.5916,212.1776 34.1137,211.4858 31.4644,204.4103 C22.7423,201.7291 19.9101,196.7746 25.798,188.7926 C20.1897,180.9438 22.8158,175.9355 31.5638,173.4992 " fill="#F1F1F1" style="stroke:#181818;stroke-width:0.5;"/><text fill="#000000" font-family="sans-serif" font-size="14" lengthAdjust="spacing" textLength="59" x="37.5" y="192.5352">Library B</text></g><!--MD5=[16fab723be418f7eaf2ea4bd895a8e51]
entity C--><g id="elem_C"><path d="M494.6018,49.2271 C498.093,43.7422 502.308,42.429 506.5743,48.4185 C509.526,42.756 515.1222,42.7414 518.9226,47.4033 C522.2845,41.5839 528.1966,40.6117 532.3539,46.4902 C536.474,41.9765 540.2021,42.1474 543.5051,47.4211 C549.4206,41.8245 553.6681,42.6461 556.9837,50.1053 C560.3481,44.9728 565.3807,44.1398 569.1595,49.6302 C577.4198,53.4953 578.2809,60.8955 570.1414,65.759 C576.9232,70.0374 577.0763,77.4699 569.447,81.0959 C566.2126,88.0822 561.6896,89.3508 556.3495,83.1944 C553.2323,89.8551 547.8106,89.3455 543.5415,84.4737 C541.5929,90.6194 536.3509,90.7225 532.4564,86.5679 C527.785,91.7029 523.3342,89.9828 520.6783,84.3611 C515.7093,90.0316 511.1015,90.0471 507.3513,83.0762 C502.6973,88.5105 497.2163,89.3526 493.9671,81.6456 C485.7174,77.8303 484.1591,72.6463 491.4252,66.2666 C484.1795,59.6609 485.4522,52.7764 494.6018,49.2271 " fill="#F1F1F1" style="stroke:#181818;stroke-width:0.5;"/><text fill="#000000" font-family="sans-serif" font-size="14" lengthAdjust="spacing" textLength="61" x="500.5" y="69.5352">Library C</text></g><!--MD5=[118f42602524ad482f02b27ef22fc383]
entity D--><g id="elem_D"><rect fill="#F1F1F1" height="46.4883" rx="2.5" ry="2.5" style="stroke:#181818;stroke-width:0.5;" width="109" x="481.5" y="164"/><rect fill="#F1F1F1" height="10" style="stroke:#181818;stroke-width:0.5;" width="15" x="570.5" y="169"/><rect fill="#F1F1F1" height="2" style="stroke:#181818;stroke-width:0.5;" width="4" x="568.5" y="171"/><rect fill="#F1F1F1" height="2" style="stroke:#181818;stroke-width:0.5;" width="4" x="568.5" y="175"/><text fill="#000000" font-family="sans-serif" font-size="14" lengthAdjust="spacing" textLength="61" x="500.5" y="197.5352">Library D</text></g><!--MD5=[5e2eec62a50b26b6b0db6c12e4ee289c]
link A to B--><g id="link_A_B"><path d="M86.6,87.19 C82.59,107.41 76.66,137.31 72.37,158.92 " fill="none" id="A-to-B" style="stroke:#FF0000;stroke-width:1.0;"/><polygon fill="#FF0000" points="71.37,163.95,77.0438,155.8997,72.3423,159.0455,69.1966,154.344,71.37,163.95" style="stroke:#FF0000;stroke-width:1.0;"/><text fill="#FF0000" filter="url(#b47wuzmpaxe240)" font-family="sans-serif" font-size="13" font-weight="bold" lengthAdjust="spacing" textLength="185" x="86" y="130.5684">ERROR: no such package 'B'</text></g><!--MD5=[e1650921a81fac0037ec207a42ac4e7e]
link A to C--><g id="link_A_C"><path d="M159.75,64 C248.56,64 401.1,64 480.16,64 " fill="none" id="A-to-C" style="stroke:#FF0000;stroke-width:1.0;"/><polygon fill="#FF0000" points="485.26,64,476.26,60,480.26,64,476.26,68,485.26,64" style="stroke:#FF0000;stroke-width:1.0;"/><text fill="#FF0000" filter="url(#b47wuzmpaxe240)" font-family="sans-serif" font-size="13" font-weight="bold" lengthAdjust="spacing" textLength="289" x="178" y="57.5684">ERROR: no such package '@shared_libs//C'</text></g><!--MD5=[95ca888c4bb7ed1df160562281720a5c]
link C to D--><g id="link_C_D"><path d="M531.92,87.19 C532.75,107.41 533.99,137.31 534.88,158.92 " fill="none" id="C-to-D" style="stroke:#181818;stroke-width:1.0;stroke-dasharray:7.0,7.0;"/><polygon fill="#181818" points="535.09,163.95,538.7271,154.7973,534.8902,158.954,530.7335,155.1171,535.09,163.95" style="stroke:#181818;stroke-width:1.0;"/><text fill="#000000" filter="url(#b47wuzmpaxe240)" font-family="sans-serif" font-size="13" lengthAdjust="spacing" textLength="54" x="538" y="130.5684">//D:libD</text></g><!--MD5=[973c5550f1453dcbe4f2767d24e4bd6c]
@startuml
package "Local Repository" {
    [ Executable A ] as A
    cloud "Library B" as B
}

package "External Repository (shared_libs)" {
    cloud "Library C" as C
    [ Library D ] as D
}

A -[#red]-> B: <back:white><b><back:white><color:red> ERROR: no such package 'B'
A -[#red]r-> C: <back:white><b><back:white><color:red>ERROR: no such package '@shared_libs//C'
C ..> D: <back:white> //D:libD

@enduml

PlantUML version 1.2022.7(Mon Aug 22 10:01:30 PDT 2022)
(GPL source distribution)
Java Runtime: OpenJDK Runtime Environment
JVM: OpenJDK 64-Bit Server VM
Default Encoding: UTF-8
Language: en
Country: US
--></g></svg>