<?xml version="1.0" encoding="UTF-8" standalone="no"?><svg xmlns="http://www.w3.org/2000/svg" xmlns:xlink="http://www.w3.org/1999/xlink" contentStyleType="text/css" height="642px" preserveAspectRatio="none" style="width:832px;height:642px;background:#FFFFFF;" version="1.1" viewBox="0 0 832 642" width="832px" zoomAndPan="magnify"><defs><filter height="1" id="batnef6ukj8ch0" width="1" x="0" y="0"><feFlood flood-color="#FFFFFF" result="flood"/><feComposite in="SourceGraphic" in2="flood" operator="over"/></filter></defs><g><!--MD5=[6802c5474c2b27d32714d54bda0bf5a7]
cluster Local Repository--><g id="cluster_Local Repository"><path d="M8.5,229 L129.5,229 A3.75,3.75 0 0 1 132,231.5 L139,251.4883 L417.5,251.4883 A2.5,2.5 0 0 1 420,253.9883 L420,632.86 A2.5,2.5 0 0 1 417.5,635.36 L8.5,635.36 A2.5,2.5 0 0 1 6,632.86 L6,231.5 A2.5,2.5 0 0 1 8.5,229 " fill="none" style="stroke:#000000;stroke-width:1.5;"/><line style="stroke:#000000;stroke-width:1.5;" x1="6" x2="139" y1="251.4883" y2="251.4883"/><text fill="#000000" font-family="sans-serif" font-size="14" font-weight="bold" lengthAdjust="spacing" textLength="120" x="10" y="244.5352">Local Repository</text></g><!--MD5=[0e1a4e810505e9a9bb9b66ef91f9b24c]
cluster adapter_local--><g id="cluster_adapter_local"><polygon fill="none" points="38,409,48,399,388,399,388,593.36,378,603.36,38,603.36,38,409" style="stroke:#181818;stroke-width:1.0;"/><line style="stroke:#181818;stroke-width:1.0;" x1="378" x2="388" y1="409" y2="399"/><line style="stroke:#181818;stroke-width:1.0;" x1="38" x2="378" y1="409" y2="409"/><line style="stroke:#181818;stroke-width:1.0;" x1="378" x2="378" y1="409" y2="603.36"/><text fill="#000000" font-family="sans-serif" font-size="14" font-weight="bold" lengthAdjust="spacing" textLength="143" x="137.5" y="425.5352">dependency adapter</text></g><!--MD5=[f043e5603ea6a6f26c99e29e5c47b1e1]
cluster External Repository (shared_libs)--><g id="cluster_External Repository (shared_libs)"><path d="M446.5,6 L685.5,6 A3.75,3.75 0 0 1 688,8.5 L695,28.4883 L822.5,28.4883 A2.5,2.5 0 0 1 825,30.9883 L825,467.86 A2.5,2.5 0 0 1 822.5,470.36 L446.5,470.36 A2.5,2.5 0 0 1 444,467.86 L444,8.5 A2.5,2.5 0 0 1 446.5,6 " fill="none" style="stroke:#000000;stroke-width:1.5;"/><line style="stroke:#000000;stroke-width:1.5;" x1="444" x2="695" y1="28.4883" y2="28.4883"/><text fill="#000000" font-family="sans-serif" font-size="14" font-weight="bold" lengthAdjust="spacing" textLength="238" x="448" y="21.5352">External Repository (shared_libs)</text></g><!--MD5=[c3dad5c2ab157d74ddeeca2286fc8a5d]
cluster adapter_shared--><g id="cluster_adapter_shared"><polygon fill="none" points="476,67,486,57,793,57,793,324,783,334,476,334,476,67" style="stroke:#181818;stroke-width:1.0;"/><line style="stroke:#181818;stroke-width:1.0;" x1="783" x2="793" y1="67" y2="57"/><line style="stroke:#181818;stroke-width:1.0;" x1="476" x2="783" y1="67" y2="67"/><line style="stroke:#181818;stroke-width:1.0;" x1="783" x2="783" y1="67" y2="334"/><text fill="#000000" font-family="sans-serif" font-size="14" font-weight="bold" lengthAdjust="spacing" textLength="143" x="559" y="83.5352">dependency adapter</text></g><!--MD5=[770389ab9df153645bc6ef28055eb2b5]
entity A--><g id="elem_A"><rect fill="#F1F1F1" height="46.4883" rx="2.5" ry="2.5" style="stroke:#181818;stroke-width:0.5;" width="137" x="264.5" y="264"/><rect fill="#F1F1F1" height="10" style="stroke:#181818;stroke-width:0.5;" width="15" x="381.5" y="269"/><rect fill="#F1F1F1" height="2" style="stroke:#181818;stroke-width:0.5;" width="4" x="379.5" y="271"/><rect fill="#F1F1F1" height="2" style="stroke:#181818;stroke-width:0.5;" width="4" x="379.5" y="275"/><text fill="#000000" font-family="sans-serif" font-size="14" lengthAdjust="spacing" textLength="89" x="283.5" y="297.5352">Executable A</text></g><!--MD5=[b2d39259b6aeabc16b394deeb0238426]
entity B--><g id="elem_B"><path d="M71.5638,542.8592 C74.8228,536.2206 80.2864,536.7664 83.9149,542.4901 C86.1027,536.7739 91.4336,535.4824 95.1737,540.9238 C99.0524,533.2308 104.3236,534.6148 108.9476,540.1477 C111.6525,535.2331 116.731,535.3662 119.2267,540.3647 C123.2063,534.3493 127.8008,534.4145 131.6312,540.5173 C136.4929,533.9835 142.4849,534.5596 145.4457,542.3504 C153.9751,545.9597 154.7192,551.9898 147.4947,557.7018 C153.9348,564.1071 152.692,569.9605 144.0495,572.9602 C140.6569,578.5711 137.0191,580.1523 131.8853,574.9121 C130.5014,582.7659 125.4821,584.0429 119.7804,578.9488 C118.0578,584.5002 112.7443,586.0116 108.855,581.2425 C103.294,587.0511 98.2673,585.3366 95.0947,578.6187 C90.5149,583.4704 86.9682,581.4856 84.6095,576.2987 C79.5916,581.5376 74.1137,580.8458 71.4644,573.7703 C62.7423,571.0891 59.9101,566.1346 65.798,558.1526 C60.1897,550.3038 62.8158,545.2955 71.5638,542.8592 " fill="#F1F1F1" style="stroke:#181818;stroke-width:0.5;"/><text fill="#808080" font-family="sans-serif" font-size="14" lengthAdjust="spacing" textLength="59" x="77.5" y="561.8952">Library B</text></g><!--MD5=[57cb1d7bbc4223f3ec08d1e44427b70b]
entity B_concrete--><g id="elem_B_concrete"><rect fill="#F1F1F1" height="46.4883" rx="2.5" ry="2.5" style="stroke:#181818;stroke-width:0.5;" width="107" x="256.5" y="533.36"/><rect fill="#F1F1F1" height="10" style="stroke:#181818;stroke-width:0.5;" width="15" x="343.5" y="538.36"/><rect fill="#F1F1F1" height="2" style="stroke:#181818;stroke-width:0.5;" width="4" x="341.5" y="540.36"/><rect fill="#F1F1F1" height="2" style="stroke:#181818;stroke-width:0.5;" width="4" x="341.5" y="544.36"/><text fill="#000000" font-family="sans-serif" font-size="14" lengthAdjust="spacing" textLength="59" x="275.5" y="566.8952">Library B</text></g><!--MD5=[118f42602524ad482f02b27ef22fc383]
entity D--><g id="elem_D"><rect fill="#F1F1F1" height="46.4883" rx="2.5" ry="2.5" style="stroke:#181818;stroke-width:0.5;" width="109" x="659.5" y="408.36"/><rect fill="#F1F1F1" height="10" style="stroke:#181818;stroke-width:0.5;" width="15" x="748.5" y="413.36"/><rect fill="#F1F1F1" height="2" style="stroke:#181818;stroke-width:0.5;" width="4" x="746.5" y="415.36"/><rect fill="#F1F1F1" height="2" style="stroke:#181818;stroke-width:0.5;" width="4" x="746.5" y="419.36"/><text fill="#000000" font-family="sans-serif" font-size="14" lengthAdjust="spacing" textLength="61" x="678.5" y="441.8952">Library D</text></g><!--MD5=[16fab723be418f7eaf2ea4bd895a8e51]
entity C--><g id="elem_C"><path d="M668.6018,113.2271 C672.093,107.7422 676.308,106.429 680.5743,112.4185 C683.526,106.756 689.1222,106.7414 692.9226,111.4033 C696.2845,105.5839 702.1966,104.6117 706.3539,110.4902 C710.474,105.9765 714.2021,106.1474 717.5051,111.4211 C723.4206,105.8245 727.6681,106.6461 730.9837,114.1053 C734.3481,108.9728 739.3807,108.1398 743.1595,113.6302 C751.4198,117.4953 752.2809,124.8955 744.1414,129.759 C750.9232,134.0374 751.0763,141.4699 743.447,145.0959 C740.2126,152.0822 735.6896,153.3508 730.3495,147.1944 C727.2323,153.8551 721.8106,153.3455 717.5415,148.4737 C715.5929,154.6194 710.3509,154.7225 706.4564,150.5679 C701.785,155.7029 697.3342,153.9828 694.6783,148.3611 C689.7093,154.0316 685.1015,154.0471 681.3513,147.0762 C676.6973,152.5105 671.2163,153.3526 667.9671,145.6456 C659.7174,141.8303 658.1591,136.6463 665.4252,130.2666 C658.1795,123.6609 659.4522,116.7764 668.6018,113.2271 " fill="#F1F1F1" style="stroke:#181818;stroke-width:0.5;"/><text fill="#808080" font-family="sans-serif" font-size="14" lengthAdjust="spacing" textLength="61" x="674.5" y="133.5352">Library C</text></g><!--MD5=[e1cc4650ebbd7135ca2d2e02040ccee9]
entity C_concrete--><g id="elem_C_concrete"><rect fill="#F1F1F1" height="46.4883" rx="2.5" ry="2.5" style="stroke:#181818;stroke-width:0.5;" width="109" x="659.5" y="264"/><rect fill="#F1F1F1" height="10" style="stroke:#181818;stroke-width:0.5;" width="15" x="748.5" y="269"/><rect fill="#F1F1F1" height="2" style="stroke:#181818;stroke-width:0.5;" width="4" x="746.5" y="271"/><rect fill="#F1F1F1" height="2" style="stroke:#181818;stroke-width:0.5;" width="4" x="746.5" y="275"/><text fill="#000000" font-family="sans-serif" font-size="14" lengthAdjust="spacing" textLength="61" x="678.5" y="297.5352">Library C</text></g><!--MD5=[ec8f45eb50315691be34cbfca95def4d]
link A to adapter_local--><g id="link_A_adapter_local"><path d="M330.19,310.24 C327.695,329.95 323.9775,359.3575 320.845,384.1413 C320.4534,387.2392 320.071,390.2649 319.7013,393.1904 C319.5164,394.6532 319.3347,396.0909 319.1566,397.5 C319.1121,397.8523 319.0678,398.2028 319.0237,398.5515 " fill="none" id="A-to-adapter_local" style="stroke:#181818;stroke-width:1.0;"/><polygon fill="#181818" points="319.0237,398.5515,324.1206,390.1241,319.6506,393.591,316.1838,389.121,319.0237,398.5515" style="stroke:#181818;stroke-width:1.0;"/></g><!--MD5=[b0906ad91407d7292821e1080c11711f]
link adapter_local to B_concrete--><g id="link_adapter_local_B_concrete"><path d="M315,432.45 C314.89,435.02 312.55,492.67 311.11,528.09 " fill="none" id="adapter_local-to-B_concrete" style="stroke:#181818;stroke-width:1.0;"/><polygon fill="#181818" points="310.9,533.14,315.2575,524.3076,311.1004,528.144,307.264,523.9869,310.9,533.14" style="stroke:#181818;stroke-width:1.0;"/><text fill="#000000" filter="url(#batnef6ukj8ch0)" font-family="sans-serif" font-size="13" lengthAdjust="spacing" textLength="48" x="317" y="499.9284">//B:libB</text></g><!--MD5=[75b92f845dbca0f3609f551278e2f96a]
link B to B_concrete--><g id="link_B_B_concrete"><path d="M151.55,556.36 C176.22,556.36 207.53,556.36 235.8,556.36 " fill="none" id="B-to-B_concrete" style="stroke:#808080;stroke-width:1.0;stroke-dasharray:7.0,7.0;"/><polygon fill="none" points="236.17,549.36,256.17,556.36,236.17,563.36,236.17,549.36" style="stroke:#808080;stroke-width:1.0;"/><text fill="#808080" font-family="sans-serif" font-size="13" font-style="italic" lengthAdjust="spacing" textLength="64" x="170" y="534.9284">convert to</text><text fill="#808080" font-family="sans-serif" font-size="13" font-style="italic" lengthAdjust="spacing" textLength="54" x="175" y="550.2389">concrete</text></g><!--MD5=[cd4a04187022546843fcf28fbde6719a]
link A to adapter_shared--><g id="link_A_adapter_shared"><path d="M401.72,287 C415.325,287 428.93,287 442.5363,287 C449.3394,287 456.1428,287 462.9467,287 C466.3487,287 469.7507,287 473.1529,287 C474.0035,287 474.8541,287 475.7046,287 " fill="none" id="A-to-adapter_shared" style="stroke:#181818;stroke-width:1.0;"/><polygon fill="#181818" points="475.7046,287,466.7046,283,470.7046,287,466.7046,291,475.7046,287" style="stroke:#181818;stroke-width:1.0;"/></g><!--MD5=[973029df1b64b4c97e235c43d837af69]
link C to C_concrete--><g id="link_C_C_concrete"><path d="M706.27,151.16 C707.64,175.12 709.87,213.88 711.58,243.71 " fill="none" id="C-to-C_concrete" style="stroke:#808080;stroke-width:1.0;stroke-dasharray:7.0,7.0;"/><polygon fill="none" points="718.58,243.58,712.74,263.95,704.6,244.38,718.58,243.58" style="stroke:#808080;stroke-width:1.0;"/><text fill="#808080" font-family="sans-serif" font-size="13" font-style="italic" lengthAdjust="spacing" textLength="64" x="714" y="194.5684">convert to</text><text fill="#808080" font-family="sans-serif" font-size="13" font-style="italic" lengthAdjust="spacing" textLength="54" x="719" y="209.8789">concrete</text></g><!--MD5=[ab53626a8c86932ffa5e9eb855836f8e]
link adapter_shared to C_concrete--><g id="link_adapter_shared_C_concrete"><path d="M484.66,287 C493.51,287 589.37,287 654.33,287 " fill="none" id="adapter_shared-to-C_concrete" style="stroke:#181818;stroke-width:1.0;"/><polygon fill="#181818" points="659.34,287,650.34,283,654.34,287,650.34,291,659.34,287" style="stroke:#181818;stroke-width:1.0;"/><text fill="#000000" filter="url(#batnef6ukj8ch0)" font-family="sans-serif" font-size="13" font-style="italic" lengthAdjust="spacing" textLength="135" x="502.43" y="280.5684">@shared_libs//C:libC</text></g><!--MD5=[1b40e303c209775c15c70473e3b99ed5]
link C_concrete to D--><g id="link_C_concrete_D"><path d="M714,310.24 C714,335.32 714,376.09 714,403.07 " fill="none" id="C_concrete-to-D" style="stroke:#181818;stroke-width:1.0;"/><polygon fill="#181818" points="714,408.27,718,399.27,714,403.27,710,399.27,714,408.27" style="stroke:#181818;stroke-width:1.0;"/><text fill="#000000" filter="url(#batnef6ukj8ch0)" font-family="sans-serif" font-size="13" lengthAdjust="spacing" textLength="54" x="719" y="371.5684">//D:libD</text></g><!--MD5=[38f70fe3976e36cb204d59e559c871d8]
@startuml
package "Local Repository" {
    [ Executable A ] as A
    node "dependency adapter" as adapter_local {
        cloud "<color:grey>Library B" as B
        [ Library B ] as B_concrete
    }
}

package "External Repository (shared_libs)" {
    node "dependency adapter" as adapter_shared {
        cloud "<color:grey>Library C" as C
        [ Library C ] as C_concrete
    }
    [ Library D ] as D
}

A -d-> adapter_local
adapter_local - -> B_concrete: <back:white> //B:libB
B .[#grey]r.|> B_concrete: <color:grey>//convert to //\n<color:grey>//concrete //
A -r-> adapter_shared
C .[#grey]d.|> C_concrete: <color:grey>// convert to//\n<color:grey>// concrete//
adapter_shared -r-> C_concrete: <back:white>//@shared_libs~//C:libC //
C_concrete - -> D: <back:white> //D:libD

@enduml

PlantUML version 1.2022.7(Mon Aug 22 10:01:30 PDT 2022)
(GPL source distribution)
Java Runtime: OpenJDK Runtime Environment
JVM: OpenJDK 64-Bit Server VM
Default Encoding: UTF-8
Language: en
Country: US
--></g></svg>